<?xml version="1.0" standalone="no"?>
<!DOCTYPE svg PUBLIC "-//W3C//DTD SVG 1.0//EN" "http://www.w3.org/TR/2001/REC-SVG-20010904/DTD/svg10.dtd">
<svg xmlns="http://www.w3.org/2000/svg" xmlns:xlink="http://www.w3.org/1999/xlink" id="body_1" width="53" height="40">

<g transform="matrix(0.078125 0 0 0.078125 6.5000014 -0)">
    <path d="M512 256C 512 326.69244 487.00647 387.03223 437.01935 437.01935C 387.03223 487.00647 326.69244 512 256 512C 185.30756 512 124.96779 487.00647 74.98067 437.01935C 24.993557 387.03223 0 326.69244 0 256C 0 185.30756 24.993557 124.96779 74.98067 74.98067C 124.96779 24.993557 185.30756 0 256 0C 326.69244 0 387.03223 24.993557 437.01935 74.98067C 487.00647 124.96779 512 185.30756 512 256C 512 258.979 511.94803 261.9571 511.84406 264.93427" stroke="none" fill="#3A99D7" fill-rule="nonzero" />
    <path d="M509.363 293.09L397.435 181.162L123.796 355.235L279.572 511.011C 397.6 500.132 492.549 409.304 509.363 293.09z" stroke="none" fill="#2682BF" fill-rule="nonzero" />
    <path d="M123.796 181.16L397.43298 181.16L397.43298 355.233L123.796 355.233z" stroke="none" fill="#F7C600" fill-rule="nonzero" />
    <path d="M123.797 181.162L397.436 181.162L260.616 96.927L123.797 181.162z" stroke="none" fill="#FFD630" fill-rule="nonzero" />
    <path d="M162.865 149.841L358.532 149.841C 368.75302 149.841 376.99402 158.08301 376.99402 168.30301L376.99402 168.30301L376.99402 355.234L144.401 355.234L144.401 168.304C 144.401 158.084 152.644 149.841 162.865 149.841z" stroke="none" fill="#FFFFFF" fill-rule="nonzero" />
    <path d="M123.797 181.162L257.648 268.199L123.79701 355.23602L123.797 181.162z" stroke="none" fill="#FFD630" fill-rule="nonzero" />
    <path d="M123.797 355.235L397.436 355.235L260.617 268.033L123.797 355.235z" stroke="none" fill="#F5BE18" fill-rule="nonzero" />
    <path d="M397.435 181.162L263.583 268.199L397.435 355.23602L397.435 181.162z" stroke="none" fill="#FFD630" fill-rule="nonzero" />
    <path d="M194.514 172.095L326.88202 172.095L326.88202 182.974L194.514 182.974L194.514 172.095zM194.514 210.009L326.88202 210.009L326.88202 220.888L194.514 220.888L194.514 210.009zM194.514 191.052L326.88202 191.052L326.88202 201.931L194.514 201.931L194.514 191.052z" stroke="none" fill="#999999" fill-rule="nonzero" />
	<g>
	</g>
	<g>
	</g>
	<g>
	</g>
	<g>
	</g>
	<g>
	</g>
	<g>
	</g>
	<g>
	</g>
	<g>
	</g>
	<g>
	</g>
	<g>
	</g>
	<g>
	</g>
	<g>
	</g>
	<g>
	</g>
	<g>
	</g>
	<g>
	</g>
</g>
</svg>