<?xml version="1.0" standalone="no"?>
<!DOCTYPE svg PUBLIC "-//W3C//DTD SVG 1.0//EN" "http://www.w3.org/TR/2001/REC-SVG-20010904/DTD/svg10.dtd">
<svg xmlns="http://www.w3.org/2000/svg" xmlns:xlink="http://www.w3.org/1999/xlink" id="body_1" width="53" height="40">

<g transform="matrix(0.13730654 0 0 0.13730654 6.500001 -0)">
	<g>
        <path d="M145.659 0C 226.099 0 291.319 65.219 291.319 145.66C 291.319 226.10101 226.1 291.319 145.66 291.319C 65.22 291.319 0 226.1 0 145.66C 0 65.22 65.21 0 145.659 0z" stroke="none" fill="#3F729B" fill-rule="nonzero" />
        <path d="M195.93 63.708L95.38 63.708C 77.909996 63.708 63.707996 77.919 63.707996 95.380005L63.707996 95.380005L63.707996 195.94C 63.707996 213.41 77.919 227.612 95.38 227.612L95.38 227.612L195.94 227.612C 213.41 227.612 227.612 213.401 227.612 195.94L227.612 195.94L227.612 95.38C 227.611 77.919 213.4 63.708 195.93 63.708zM205.908 82.034L209.49501 82.024994L209.49501 109.22699L182.09302 109.31799L182.00201 82.116C 182.002 82.116 205.908 82.034 205.908 82.034zM145.66 118.239C 168.392 118.239 173.08 139.578 173.08 145.668C 173.08 160.771 160.772 173.079 145.66 173.079C 130.539 173.079 118.240005 160.771 118.240005 145.668C 118.23 139.578 122.928 118.239 145.66 118.239zM209.65 193.955C 209.65 202.613 202.61299 209.659 193.937 209.659L193.937 209.659L97.073 209.659C 88.406 209.659 81.36 202.622 81.36 193.955L81.36 193.955L81.36 127.416L104.119 127.416C 102.007 132.614 100.814 139.715 100.814 145.669C 100.814 170.37701 120.915 190.487 145.632 190.487C 170.349 190.487 190.44 170.377 190.44 145.669C 190.44 139.71501 189.24701 132.61401 187.144 127.41601L187.144 127.41601L209.63 127.41601L209.63 193.95502L209.65 193.955z" stroke="none" fill="#FFFFFF" fill-rule="nonzero" />
	</g>
	<g>
	</g>
	<g>
	</g>
	<g>
	</g>
	<g>
	</g>
	<g>
	</g>
	<g>
	</g>
	<g>
	</g>
	<g>
	</g>
	<g>
	</g>
	<g>
	</g>
	<g>
	</g>
	<g>
	</g>
	<g>
	</g>
	<g>
	</g>
	<g>
	</g>
</g>
</svg>