<?xml version="1.0" standalone="no"?>
<!DOCTYPE svg PUBLIC "-//W3C//DTD SVG 1.0//EN" "http://www.w3.org/TR/2001/REC-SVG-20010904/DTD/svg10.dtd">
<svg xmlns="http://www.w3.org/2000/svg" xmlns:xlink="http://www.w3.org/1999/xlink" id="body_1" width="53" height="40">

<g transform="matrix(0.35651895 0 0 0.35651895 6.5 -0)">
	<g>
        <path d="M112.196 56.097C 112.196 71.58804 106.71909 84.81046 95.765274 95.764275C 84.81146 106.718094 71.589035 112.19501 56.098 112.195C 40.606964 112.19501 27.38454 106.718094 16.430725 95.764275C 5.4769087 84.81046 0 71.58804 0 56.097C 0 40.605965 5.4769087 27.383541 16.430725 16.429726C 27.38454 5.475909 40.606964 -0.0009994507 56.098 -0.0009994507C 71.589035 -0.0009994507 84.81146 5.475909 95.765274 16.429726C 106.71909 27.383541 112.196 40.605965 112.196 56.097C 112.196 56.749798 112.18461 57.402393 112.16183 58.05479" stroke="none" fill="#007AB9" fill-rule="nonzero" />
		<g>
            <path d="M89.616 60.611L89.616 83.739L76.207 83.739L76.207 62.161C 76.207 56.743 74.271 53.043 69.416 53.043C 65.711 53.043 63.510002 55.534 62.538002 57.946C 62.185 58.808 62.094 60.004997 62.094 61.214L62.094 61.214L62.094 83.738L48.684 83.738C 48.684 83.738 48.864 47.191998 48.684 43.409L48.684 43.409L62.094997 43.409L62.094997 49.124C 62.067997 49.169 62.03 49.213 62.005997 49.256L62.005997 49.256L62.094997 49.256L62.094997 49.124C 63.877 46.382 67.055 42.462 74.18 42.462C 83.002 42.462 89.616 48.226 89.616 60.611zM34.656 23.969C 30.068998 23.969 27.067999 26.98 27.067999 30.936C 27.067999 34.808002 29.981998 37.906002 34.48 37.906002L34.48 37.906002L34.567 37.906002C 39.244003 37.906002 42.152 34.808002 42.152 30.936003C 42.063 26.98 39.244 23.969 34.656 23.969zM27.865 83.739L41.27 83.739L41.27 43.409L27.865 43.409L27.865 83.739z" stroke="none" fill="#F1F2F2" fill-rule="nonzero" />
		</g>
	</g>
	<g>
	</g>
	<g>
	</g>
	<g>
	</g>
	<g>
	</g>
	<g>
	</g>
	<g>
	</g>
	<g>
	</g>
	<g>
	</g>
	<g>
	</g>
	<g>
	</g>
	<g>
	</g>
	<g>
	</g>
	<g>
	</g>
	<g>
	</g>
	<g>
	</g>
</g>
</svg>