<?xml version="1.0" standalone="no"?>
<!DOCTYPE svg PUBLIC "-//W3C//DTD SVG 1.0//EN" "http://www.w3.org/TR/2001/REC-SVG-20010904/DTD/svg10.dtd">
<svg xmlns="http://www.w3.org/2000/svg" xmlns:xlink="http://www.w3.org/1999/xlink" id="body_1" width="54" height="40">

<g transform="matrix(2 0 0 2 0 0)">
	<g transform="matrix(0.101123594 0 0 0.10000001 0 0)">
		<g transform="matrix(0.6170136 0 0 0.6170136 33.500008 -0)">
			<g>
				<g>
                    <path d="M162.07 7.5C 77.161 7.5 8.329 76.332 8.329 161.241C 8.329 199.524 22.326 234.536 45.475998 261.448C 38.523 281.434 25.668999 298.658 8.996998 311.03C 19.588997 314.649 30.934998 316.643 42.753998 316.643C 62.968 316.643 81.836 310.892 97.821 300.945C 117.372 309.95102 139.133 314.983 162.07 314.983C 246.979 314.983 315.811 246.15 315.811 161.241C 315.812 76.332 246.979 7.5 162.07 7.5z" stroke="none" fill="#61B4E4" fill-rule="nonzero" />
					<g>
						<g>
                            <path d="M247.777 95.83C 240.95999 99.818 233.405 102.705 225.366 104.267C 218.942 97.517 209.773 93.298 199.622 93.298C 180.144 93.298 164.351 108.843994 164.351 128.028C 164.351 130.743 164.664 133.386 165.257 135.931C 135.94101 134.482 109.94701 120.660995 92.548004 99.653C 89.51601 104.776 87.768005 110.74 87.768005 117.111C 87.768005 129.156 94.006004 139.783 103.466 146.016C 97.692 145.82501 92.246 144.268 87.48801 141.671C 87.48801 141.81801 87.48801 141.961 87.48801 142.108C 87.48801 158.927 99.65101 172.963 115.79301 176.159C 112.826004 176.954 109.711006 177.37799 106.490005 177.37799C 104.218 177.37799 102.011 177.15599 99.851006 176.75299C 104.350006 190.54298 117.368004 200.58899 132.806 200.87C 120.728 210.177 105.526 215.734 88.988 215.734C 86.134 215.734 83.334 215.56999 80.57 215.248C 96.19 225.09601 114.738 230.847 134.65201 230.847C 199.543 230.847 235.016 177.94 235.016 132.051C 235.016 130.54599 234.99501 129.043 234.925 127.55399C 241.81 122.66499 247.797 116.54499 252.52501 109.57599C 246.19801 112.34199 239.404 114.19999 232.26201 115.03899C 239.551 110.754 245.136 103.945 247.777 95.83z" stroke="none" fill="#FFFFFF" fill-rule="nonzero" />
						</g>
					</g>
				</g>
                <path d="M253.389 102.125C 253.96101 100.832 254.46901 99.506 254.91 98.151C 255.873 95.191 254.908 91.942 252.483 89.989C 250.058 88.034996 246.679 87.784996 243.991 89.355995C 238.867 92.354 233.372 94.607994 227.611 96.078995C 219.89 89.50199 209.911 85.797 199.62299 85.797C 176.18698 85.797 157.094 104.506 156.85498 127.59C 134.02998 124.28999 113.05498 112.65199 98.32598 94.868C 96.76798 92.988 94.38198 91.98499 91.96098 92.174995C 89.526985 92.367 87.33898 93.730995 86.095985 95.83199C 82.28399 102.270996 80.26999 109.62899 80.26999 117.10999C 80.26999 123.36199 81.66099 129.41699 84.24399 134.909C 84.04699 135.00299 83.85299 135.107 83.66299 135.22C 81.38599 136.571 79.98999 139.023 79.98999 141.67L79.98999 141.67L79.98999 142.107C 79.98999 154.04799 85.11099 165.053 93.45699 172.83499C 92.32099 174.68999 92.034996 176.971 92.72299 179.079C 96.22399 189.80899 103.79599 198.428 113.44199 203.47C 105.78099 206.61101 97.52699 208.23401 88.98999 208.23401C 86.45699 208.23401 83.91799 208.08801 81.44199 207.798C 77.96199 207.395 74.66599 209.447 73.49999 212.751C 72.33399 216.054 73.60899 219.72401 76.57199 221.59201C 93.95799 232.55301 114.04199 238.34601 134.65399 238.34601C 175.18999 238.34601 200.58899 219.483 214.758 203.65901C 232.401 183.95601 242.519 157.85501 242.519 132.05002C 242.519 131.77202 242.519 131.50002 242.517 131.23602C 248.787 126.28002 254.23 120.425026 258.734 113.786026C 260.609 111.022026 260.43002 107.35003 258.29602 104.78203C 257.029 103.259 255.258 102.342 253.389 102.125zM227.518 132.05C 227.518 154.212 218.794 176.66501 203.582 193.653C 191.453 207.199 169.649 223.34601 134.653 223.34601C 126.517 223.34601 118.477 222.3 110.712 220.259C 120.304 217.55301 129.314 213.03 137.385 206.81C 139.90799 204.866 140.928 201.54 139.928 198.51599C 138.928 195.49199 136.12799 193.42899 132.943 193.37099C 125.09599 193.22798 117.88699 189.86998 112.84699 184.413C 114.494995 184.17 116.12699 183.833 117.73399 183.403C 121.103 182.5 123.40399 179.395 123.288994 175.91C 123.173 172.425 120.66999 169.479 117.24899 168.80101C 108.148994 167.00002 100.81099 160.88301 97.27599 152.90201C 99.23799 153.24101 101.22399 153.445 103.215996 153.51201C 106.589 153.62001 109.593994 151.48901 110.612 148.28801C 111.630005 145.087 110.395 141.6 107.591 139.75201C 99.874 134.66801 95.267006 126.20401 95.267006 117.110016C 95.267006 115.985016 95.338005 114.86401 95.478004 113.75501C 114.13701 131.47702 138.81201 142.13301 164.886 143.42201C 167.229 143.53902 169.506 142.544 171.014 140.73701C 172.522 138.93001 173.095 136.52002 172.559 134.22702C 172.08801 132.20702 171.849 130.12202 171.849 128.02802C 171.849 113.013016 184.307 100.79802 199.62 100.79802C 207.303 100.79802 214.705 103.94702 219.93199 109.43802C 221.396 110.97802 223.415 111.819016 225.51399 111.76602C 224.681 113.48602 224.50899 115.511024 225.153 117.428024C 225.908 119.67403 227.644 121.36202 229.765 122.11102C 228.196 123.59902 227.331 125.70802 227.434 127.90202C 227.492 129.114 227.518 130.432 227.518 132.05zM162.07 0C 73.162 0 0.829 72.333 0.829 161.241C 0.829 198.317 13.617001 234.245 36.928997 262.917C 30.277996 279.675 19.139997 294.164 4.527996 305.00598C 2.2899961 306.666 1.1579962 309.43 1.5869961 312.184C 2.015996 314.93698 3.935996 317.22598 6.572996 318.12598C 18.255997 322.11798 30.428997 324.14197 42.754997 324.14197C 62.326996 324.14197 81.453 319.04898 98.324 309.37897C 118.481995 318.07498 139.90799 322.48196 162.071 322.48196C 250.98 322.48196 323.312 250.14896 323.312 161.23996C 323.312 72.333 250.979 0 162.07 0zM162.07 307.483C 140.75 307.483 120.18901 302.991 100.95901 294.133C 98.66701 293.078 96.00001 293.244 93.85801 294.577C 78.54401 304.106 60.87301 309.142 42.75301 309.142C 36.70001 309.142 30.688011 308.578 24.772009 307.45898C 37.292007 295.33798 46.78501 280.508 52.55901 263.912C 53.43801 261.386 52.90501 258.58398 51.16101 256.55698C 28.37701 230.06998 15.82901 196.21997 15.82901 161.24097C 15.829 80.604 81.433 15 162.07 15C 242.70702 15 308.311 80.604 308.311 161.241C 308.312 241.879 242.708 307.483 162.07 307.483z" stroke="none" fill="#071C2C" fill-rule="nonzero" />
			</g>
			<g>
			</g>
			<g>
			</g>
			<g>
			</g>
			<g>
			</g>
			<g>
			</g>
			<g>
			</g>
			<g>
			</g>
			<g>
			</g>
			<g>
			</g>
			<g>
			</g>
			<g>
			</g>
			<g>
			</g>
			<g>
			</g>
			<g>
			</g>
			<g>
			</g>
		</g>
	</g>
</g>
</svg>